<svg width="32" height="32" viewBox="0 0 32 32" fill="none" xmlns="http://www.w3.org/2000/svg">
<path d="M11.9998 19.8893V20.6666C11.9998 22.2579 12.632 23.784 13.7572 24.9093C14.8824 26.0345 16.4085 26.6666 17.9998 26.6666C19.5911 26.6666 21.1173 26.0345 22.2425 24.9093C23.3677 23.784 23.9998 22.2579 23.9998 20.6666V18.44C23.1098 18.1254 22.3597 17.5064 21.882 16.6922C21.4043 15.8781 21.2299 14.9213 21.3894 13.9909C21.549 13.0606 22.0323 12.2166 22.754 11.6081C23.4757 10.9997 24.3892 10.666 25.3332 10.666C26.2771 10.666 27.1907 10.9997 27.9123 11.6081C28.634 12.2166 29.1174 13.0606 29.2769 13.9909C29.4365 14.9213 29.262 15.8781 28.7843 16.6922C28.3066 17.5064 27.5565 18.1254 26.6665 18.44V20.6666C26.6665 22.9652 25.7534 25.1696 24.1281 26.7949C22.5028 28.4202 20.2984 29.3333 17.9998 29.3333C15.7013 29.3333 13.4969 28.4202 11.8716 26.7949C10.2463 25.1696 9.33317 22.9652 9.33317 20.6666V19.8893C7.46907 19.5737 5.77692 18.6082 4.55664 17.1642C3.33635 15.7201 2.66675 13.8906 2.6665 12L2.6665 5.33329C2.6665 4.62605 2.94746 3.94777 3.44755 3.44767C3.94765 2.94758 4.62593 2.66663 5.33317 2.66663H6.6665C7.02013 2.66663 7.35926 2.8071 7.60931 3.05715C7.85936 3.3072 7.99984 3.64634 7.99984 3.99996C7.99984 4.35358 7.85936 4.69272 7.60931 4.94277C7.35926 5.19282 7.02013 5.33329 6.6665 5.33329H5.33317V12C5.33317 13.4144 5.89507 14.771 6.89527 15.7712C7.89546 16.7714 9.25202 17.3333 10.6665 17.3333C12.081 17.3333 13.4375 16.7714 14.4377 15.7712C15.4379 14.771 15.9998 13.4144 15.9998 12V5.33329H14.6665C14.3129 5.33329 13.9737 5.19282 13.7237 4.94277C13.4736 4.69272 13.3332 4.35358 13.3332 3.99996C13.3332 3.64634 13.4736 3.3072 13.7237 3.05715C13.9737 2.8071 14.3129 2.66663 14.6665 2.66663H15.9998C16.7071 2.66663 17.3854 2.94758 17.8855 3.44767C18.3856 3.94777 18.6665 4.62605 18.6665 5.33329V12C18.6663 13.8906 17.9967 15.7201 16.7764 17.1642C15.5561 18.6082 13.8639 19.5737 11.9998 19.8893ZM25.3332 16C25.6868 16 26.0259 15.8595 26.276 15.6094C26.526 15.3594 26.6665 15.0202 26.6665 14.6666C26.6665 14.313 26.526 13.9739 26.276 13.7238C26.0259 13.4738 25.6868 13.3333 25.3332 13.3333C24.9796 13.3333 24.6404 13.4738 24.3904 13.7238C24.1403 13.9739 23.9998 14.313 23.9998 14.6666C23.9998 15.0202 24.1403 15.3594 24.3904 15.6094C24.6404 15.8595 24.9796 16 25.3332 16Z" fill="#FBFBFB"/>
</svg>
